HIERARCHY
ROOT Hips
{
	OFFSET 0.000000 35.082581 0.000000
	CHANNELS 6 Xposition Yposition Zposition Xrotation Yrotation Zrotation 
	JOINT Spine
	{
		OFFSET 0.000000 6.876099 0.125700
		CHANNELS 3 Xrotation Yrotation Zrotation
		JOINT Spine1
		{
			OFFSET 0.000000 5.730043 0.104720
			CHANNELS 3 Xrotation Yrotation Zrotation
			JOINT Spine1_split
			{
				OFFSET 0.000000 5.730043 0.104720
				CHANNELS 3 Xrotation Yrotation Zrotation
				JOINT Spine2
				{
					OFFSET 0.000000 5.730043 0.104720
					CHANNELS 3 Xrotation Yrotation Zrotation
					JOINT Neck
					{
						OFFSET 0.000000 10.314075 0.188496
						CHANNELS 3 Xrotation Yrotation Zrotation
						JOINT Head
						{
							OFFSET 0.000000 7.643700 -2.377400
							CHANNELS 3 Xrotation Yrotation Zrotation
							JOINT HeadTop_End
							{
								OFFSET 0.000000 43.788605 -13.619600
								CHANNELS 3 Xrotation Yrotation Zrotation
								End Site
								{
									OFFSET 0.000000 0.000000 0.000000
								}
							}
						}
					}
					JOINT LeftShoulder
					{
						OFFSET 2.196100 4.412489 0.087492
						CHANNELS 3 Xrotation Yrotation Zrotation
						JOINT LeftShoulder_split
						{
							OFFSET 2.196100 4.412489 0.087492
							CHANNELS 3 Xrotation Yrotation Zrotation
							JOINT LeftArm
							{
								OFFSET 8.771219 -2.981674 -0.026999
								CHANNELS 3 Xrotation Yrotation Zrotation
								JOINT LeftForeArm
								{
									OFFSET 8.512804 0.000000 -0.000000
									CHANNELS 3 Xrotation Yrotation Zrotation
									JOINT LeftHand
									{
										OFFSET 18.484802 0.000000 -0.000000
										CHANNELS 3 Xrotation Yrotation Zrotation
										JOINT LeftHandThumb1
										{
											OFFSET 2.499420 -1.158070 2.653252
											CHANNELS 3 Xrotation Yrotation Zrotation
											JOINT LeftHandThumb2
											{
												OFFSET 2.370079 -1.368366 1.368366
												CHANNELS 3 Xrotation Yrotation Zrotation
												JOINT LeftHandThumb3
												{
													OFFSET 2.676727 -1.545410 1.545409
													CHANNELS 3 Xrotation Yrotation Zrotation
													JOINT LeftHandThumb4
													{
														OFFSET 1.692226 -0.977005 0.977007
														CHANNELS 3 Xrotation Yrotation Zrotation
														End Site
														{
															OFFSET 0.000000 0.000000 0.000000
														}
													}
												}
											}
										}
										JOINT LeftHandIndex1
										{
											OFFSET 7.924831 -0.457527 2.345128
											CHANNELS 3 Xrotation Yrotation Zrotation
											JOINT LeftHandIndex2
											{
												OFFSET 3.643303 0.000000 0.000000
												CHANNELS 3 Xrotation Yrotation Zrotation
												JOINT LeftHandIndex3
												{
													OFFSET 3.810799 0.000000 0.000000
													CHANNELS 3 Xrotation Yrotation Zrotation
													JOINT LeftHandIndex4
													{
														OFFSET 2.403702 0.000000 0.000000
														CHANNELS 3 Xrotation Yrotation Zrotation
														End Site
														{
															OFFSET 0.000000 0.000000 0.000000
														}
													}
												}
											}
										}
										JOINT LeftHandMiddle1
										{
											OFFSET 8.563995 0.000000 -0.000000
											CHANNELS 3 Xrotation Yrotation Zrotation
											JOINT LeftHandMiddle2
											{
												OFFSET 3.861618 0.000000 0.000000
												CHANNELS 3 Xrotation Yrotation Zrotation
												JOINT LeftHandMiddle3
												{
													OFFSET 3.701603 0.000000 0.000000
													CHANNELS 3 Xrotation Yrotation Zrotation
													JOINT LeftHandMiddle4
													{
														OFFSET 2.322544 0.000000 0.000000
														CHANNELS 3 Xrotation Yrotation Zrotation
														End Site
														{
															OFFSET 0.000000 0.000000 0.000000
														}
													}
												}
											}
										}
										JOINT LeftHandRing1
										{
											OFFSET 8.426460 -0.424637 -3.286992
											CHANNELS 3 Xrotation Yrotation Zrotation
											JOINT LeftHandRing2
											{
												OFFSET 3.126408 0.000000 0.000000
												CHANNELS 3 Xrotation Yrotation Zrotation
												JOINT LeftHandRing3
												{
													OFFSET 3.085026 0.000000 0.000000
													CHANNELS 3 Xrotation Yrotation Zrotation
													JOINT LeftHandRing4
													{
														OFFSET 1.644005 0.000000 0.000000
														CHANNELS 3 Xrotation Yrotation Zrotation
														End Site
														{
															OFFSET 0.000000 0.000000 0.000000
														}
													}
												}
											}
										}
									}
								}
							}
						}
					}
					JOINT RightShoulder
					{
						OFFSET -2.196100 4.412496 0.070690
						CHANNELS 3 Xrotation Yrotation Zrotation
						JOINT RightShoulder_split
						{
							OFFSET -2.196100 4.412496 0.070690
							CHANNELS 3 Xrotation Yrotation Zrotation
							JOINT RightArm
							{
								OFFSET -8.771282 -2.981682 -0.094208
								CHANNELS 3 Xrotation Yrotation Zrotation
								JOINT RightForeArm
								{
									OFFSET -8.494598 0.000000 0.000000
									CHANNELS 3 Xrotation Yrotation Zrotation
									JOINT RightHand
									{
										OFFSET -18.483803 0.000000 0.000001
										CHANNELS 3 Xrotation Yrotation Zrotation
										JOINT RightHandThumb1
										{
											OFFSET -2.527351 -1.008072 2.575253
											CHANNELS 3 Xrotation Yrotation Zrotation
											JOINT RightHandThumb2
											{
												OFFSET -2.321518 -1.340328 1.340329
												CHANNELS 3 Xrotation Yrotation Zrotation
												JOINT RightHandThumb3
												{
													OFFSET -2.657753 -1.534454 1.534455
													CHANNELS 3 Xrotation Yrotation Zrotation
													JOINT RightHandThumb4
													{
														OFFSET -1.807510 -1.043568 1.043567
														CHANNELS 3 Xrotation Yrotation Zrotation
														End Site
														{
															OFFSET 0.000000 0.000000 0.000000
														}
													}
												}
											}
										}
										JOINT RightHandIndex1
										{
											OFFSET -8.811420 0.015533 2.887987
											CHANNELS 3 Xrotation Yrotation Zrotation
											JOINT RightHandIndex2
											{
												OFFSET -3.537502 0.000000 0.000000
												CHANNELS 3 Xrotation Yrotation Zrotation
												JOINT RightHandIndex3
												{
													OFFSET -3.356201 0.000000 0.000000
													CHANNELS 3 Xrotation Yrotation Zrotation
													JOINT RightHandIndex4
													{
														OFFSET -1.933098 0.000000 0.000000
														CHANNELS 3 Xrotation Yrotation Zrotation
														End Site
														{
															OFFSET 0.000000 0.000000 0.000000
														}
													}
												}
											}
										}
										JOINT RightHandMiddle1
										{
											OFFSET -8.178135 0.000000 0.000000
											CHANNELS 3 Xrotation Yrotation Zrotation
											JOINT RightHandMiddle2
											{
												OFFSET -3.901302 0.000000 0.000000
												CHANNELS 3 Xrotation Yrotation Zrotation
												JOINT RightHandMiddle3
												{
													OFFSET -3.909599 0.000000 0.000000
													CHANNELS 3 Xrotation Yrotation Zrotation
													JOINT RightHandMiddle4
													{
														OFFSET -2.376003 0.000000 0.000000
														CHANNELS 3 Xrotation Yrotation Zrotation
														End Site
														{
															OFFSET 0.000000 0.000000 0.000000
														}
													}
												}
											}
										}
										JOINT RightHandRing1
										{
											OFFSET -7.559013 0.014137 -2.865403
											CHANNELS 3 Xrotation Yrotation Zrotation
											JOINT RightHandRing2
											{
												OFFSET -3.449306 0.000000 0.000000
												CHANNELS 3 Xrotation Yrotation Zrotation
												JOINT RightHandRing3
												{
													OFFSET -3.362106 0.000000 0.000000
													CHANNELS 3 Xrotation Yrotation Zrotation
													JOINT RightHandRing4
													{
														OFFSET -2.076401 0.000000 0.000000
														CHANNELS 3 Xrotation Yrotation Zrotation
														End Site
														{
															OFFSET 0.000000 0.000000 0.000000
														}
													}
												}
											}
										}
									}
								}
							}
						}
					}
				}
			}
		}
	}
	JOINT LeftUpLeg
	{
		OFFSET 10.205400 -3.823500 0.155100
		CHANNELS 3 Xrotation Yrotation Zrotation
		JOINT LeftLeg
		{
			OFFSET 0.708757 -12.982077 0.567790
			CHANNELS 3 Xrotation Yrotation Zrotation
			JOINT LeftFoot
			{
				OFFSET -0.708756 -10.717838 -2.184338
				CHANNELS 3 Xrotation Yrotation Zrotation
				JOINT LeftToeBase
				{
					OFFSET 0.108149 -7.191104 7.560241
					CHANNELS 3 Xrotation Yrotation Zrotation
					JOINT LeftToe_End
					{
						OFFSET 0.070230 0.081724 4.490308
						CHANNELS 3 Xrotation Yrotation Zrotation
						End Site
						{
							OFFSET 0.000000 0.000000 0.000000
						}
					}
				}
			}
		}
	}
	JOINT RightUpLeg
	{
		OFFSET -10.205400 -3.823500 0.005500
		CHANNELS 3 Xrotation Yrotation Zrotation
		JOINT RightLeg
		{
			OFFSET -0.708756 -12.982134 0.610632
			CHANNELS 3 Xrotation Yrotation Zrotation
			JOINT RightFoot
			{
				OFFSET 0.708754 -10.717769 -1.945823
				CHANNELS 3 Xrotation Yrotation Zrotation
				JOINT RightToeBase
				{
					OFFSET -0.108140 -7.191069 7.372968
					CHANNELS 3 Xrotation Yrotation Zrotation
					JOINT RightToe_End
					{
						OFFSET -0.070227 0.081735 4.479403
						CHANNELS 3 Xrotation Yrotation Zrotation
						End Site
						{
							OFFSET 0.000000 0.000000 0.000000
						}
					}
				}
			}
		}
	}
}
MOTION
Frames: 4
Frame Time: 0.016667
47.593464 36.553787 85.015633 -100.742606 -66.232051 -182.318567 11.560378 1.446750 1.540744 4.854295 11.245296 9.491968 0.000000 0.000000 0.000000 -0.264529 4.650247 6.859576 17.054962 5.940629 9.977817 17.218046 33.848106 -18.256828 -0.000001 0.000001 -0.000001 0.094772 -6.199205 -0.123080 0.000000 0.000000 0.000000 9.665287 -8.508378 -0.913032 -0.000006 -16.045851 -0.000004 35.770445 4.134757 2.795905 -21.849384 -26.533912 3.214676 14.707528 16.467041 -15.962721 -7.335843 -0.421718 13.147348 0.000001 -0.000002 -0.000000 -1.323892 -11.050852 -6.554816 0.019617 0.479394 -4.683533 0.036121 0.650307 -6.359147 -0.000002 0.000000 -0.000000 -0.648684 1.485327 -20.430356 0.000892 0.102841 -1.003613 0.153317 1.332798 -13.122649 0.000001 0.000001 0.000000 5.314343 12.518980 -31.340805 0.022012 0.507672 -4.960401 0.032836 -0.620150 6.063185 0.000002 0.000001 0.000003 0.702724 0.170131 17.086806 0.000000 0.000000 0.000000 -42.474344 9.627231 15.642588 0.000006 21.324544 -0.000003 54.171057 3.808790 -28.436347 -17.608784 2.987711 1.533023 -5.026867 -26.669261 -12.857303 -13.642573 -18.946496 -16.527787 0.000001 -0.000002 -0.000000 0.237648 -2.716283 11.266508 0.242377 -1.484320 18.547372 0.212859 -1.393253 17.371384 -0.000001 -0.000001 -0.000003 2.290403 -8.097827 24.945374 0.422944 -1.940993 24.583191 0.670468 -2.409299 31.097602 -0.000001 -0.000001 0.000000 5.299376 -10.955980 36.062859 0.774654 -2.573987 33.493762 0.902476 -2.757241 36.241899 0.000000 0.000000 0.000003 -51.913099 20.871098 27.979819 94.964368 -4.822149 -10.195696 -1.605825 -9.185137 -6.971647 0.669958 -0.000003 0.000027 -0.000004 -0.000000 0.000000 -56.264581 28.927897 -63.471541 84.061959 16.856560 -1.590059 -13.305407 -4.568288 26.832323 8.592426 -0.000054 0.000010 -0.000000 0.000002 -0.000000 
48.930782 35.324760 86.790001 -100.045380 -65.491986 -183.057457 11.656344 1.312156 1.071434 5.544256 11.383302 9.197809 0.000000 0.000000 0.000000 -0.042809 4.627750 6.563420 15.374952 5.803011 9.269351 18.722397 32.861416 -18.303630 -0.000000 0.000002 0.000000 0.193424 -6.244330 -0.490217 0.000000 0.000000 0.000000 8.939507 -6.671605 0.394171 -0.000004 -17.704899 -0.000003 40.311797 8.263344 4.360186 -22.662737 -26.776599 3.864258 11.870365 19.263012 -11.470790 -8.295412 -0.172131 12.732432 -0.000001 -0.000003 0.000003 0.129989 -11.645888 -0.445218 0.021087 0.497159 -4.857433 0.032001 0.612121 -5.984344 0.000000 -0.000001 -0.000002 -0.475372 0.547765 -12.557675 0.000941 0.104591 -1.020729 0.142475 1.285526 -12.649023 0.000001 0.000001 0.000003 3.960296 12.243273 -23.933504 0.023677 0.526793 -5.147701 0.042395 -0.704342 6.890103 -0.000001 -0.000000 -0.000000 0.757839 0.219491 18.065855 0.000000 0.000000 0.000000 -42.841071 9.112744 16.864212 -0.000002 24.910777 -0.000002 54.071370 4.622347 -27.029946 -17.424511 3.155069 1.313347 -4.888516 -26.946242 -12.345326 -13.541689 -19.793883 -16.673206 0.000001 -0.000002 -0.000000 0.256217 -2.735444 12.032140 0.266309 -1.553846 19.450487 0.230192 -1.447482 18.070594 -0.000002 0.000001 -0.000002 2.288269 -8.009695 25.439333 0.480173 -2.061441 26.221894 0.731950 -2.508326 32.530890 0.000001 -0.000000 0.000000 5.282055 -10.807335 36.655665 0.848289 -2.681830 35.099591 0.999112 -2.884282 38.205227 -0.000000 -0.000000 0.000001 -52.310913 20.160478 27.141973 95.471817 -4.704954 -9.951072 -1.454124 -9.146549 -6.551502 0.269136 -0.000015 0.000010 -0.000002 0.000000 0.000000 -58.013537 28.704071 -62.472578 80.971722 16.088965 -2.164249 -8.935586 -3.796893 29.489393 7.909044 -0.000073 0.000022 0.000001 0.000000 -0.000001 
50.259907 33.924740 88.730675 -98.999624 -65.963242 -183.610716 11.757921 1.052872 1.001274 5.957492 11.339478 9.012858 0.000000 0.000000 0.000000 0.073770 4.191036 6.295747 13.799725 5.635489 8.568026 19.962053 31.780706 -18.252620 -0.000000 -0.000001 -0.000001 0.268092 -6.237658 -0.973462 0.000000 0.000000 0.000000 7.893512 -4.110867 1.992684 -0.000006 -21.678775 0.000011 45.854205 11.612286 6.910715 -24.357804 -27.217477 5.367343 4.744740 23.727341 -0.421141 -10.448902 0.439140 11.817480 -0.000001 -0.000003 -0.000002 2.172450 -12.057179 7.954035 0.022641 0.515075 -5.032873 0.037604 0.663463 -6.488394 0.000000 0.000000 -0.000001 0.020044 -0.647332 -0.983331 0.000970 0.106385 -1.038269 0.156800 1.347710 -13.272151 0.000002 -0.000000 0.000004 1.956648 11.211966 -12.644196 0.025455 0.546079 -5.336624 0.027768 -0.570272 5.573895 -0.000001 -0.000005 0.000001 0.787632 0.240706 18.556290 0.000000 0.000000 0.000000 -42.487923 7.719427 18.634648 0.000000 29.131272 0.000008 53.659602 5.152969 -25.209972 -17.240926 3.321300 1.091998 -4.748476 -27.220686 -11.832478 -13.444488 -20.639778 -16.817379 0.000002 0.000003 0.000002 0.274444 -2.754154 12.796007 0.291296 -1.622804 20.351556 0.248142 -1.501369 18.768206 0.000003 0.000001 -0.000002 2.284457 -7.922237 25.932002 0.540680 -2.179899 27.857056 0.795767 -2.605581 33.961060 -0.000004 -0.000000 0.000000 5.261791 -10.660295 37.246814 0.924736 -2.787313 36.701994 1.099815 -3.007657 40.164449 -0.000002 0.000002 -0.000001 -52.586658 18.776496 25.131350 96.281823 -4.369828 -9.177368 -1.544872 -7.923384 -6.111002 0.402816 0.000011 -0.000016 0.000003 0.000000 -0.000000 -58.636566 27.361968 -62.756092 77.713687 15.399307 -2.821756 -5.557488 -2.816016 31.857601 7.955519 -0.000059 -0.000004 0.000001 -0.000004 -0.000001 
51.644253 32.241150 90.770073 -98.903482 -65.712007 -185.755560 11.875019 0.804519 1.233127 6.189661 11.236938 8.879455 0.000000 0.000000 0.000000 0.150937 3.491569 6.062975 12.506461 5.434260 7.875159 20.393681 30.654900 -18.008844 -0.000000 -0.000003 -0.000001 0.299023 -6.173936 -1.669705 0.000000 0.000000 0.000000 6.360270 2.416624 3.605609 -0.000010 -28.398069 -0.000008 50.134514 13.536578 11.094382 -26.147723 -27.717049 6.953328 -3.260753 25.444458 12.144135 -12.718429 1.160016 10.880837 0.000001 0.000002 -0.000000 4.001851 -11.998664 15.702204 0.024250 0.533128 -5.209777 0.051291 0.774314 -7.578629 -0.000001 0.000001 0.000004 0.680423 -1.545805 10.206255 0.001003 0.108233 -1.056268 0.190117 1.481800 -14.621355 0.000001 0.000000 -0.000001 0.308126 9.635015 -1.589503 0.027302 0.565500 -5.527092 0.007183 -0.290484 2.835929 0.000000 -0.000001 -0.000000 1.035445 0.349708 19.023810 0.000000 0.000000 0.000000 -41.972960 5.617784 20.313758 -0.000000 34.549566 -0.000004 53.342220 5.393195 -23.168627 -17.059697 3.485422 0.870139 -4.607790 -27.490757 -11.322429 -13.352643 -21.478414 -16.959387 -0.000000 0.000003 -0.000000 0.292226 -2.772301 13.552775 0.317108 -1.690734 21.244356 0.266567 -1.554535 19.459405 0.000001 -0.000000 0.000000 2.278993 -7.836069 26.419955 0.603964 -2.295558 29.477321 0.861360 -2.700304 35.378184 0.000002 -0.000000 0.000001 5.238764 -10.515952 37.832237 1.003368 -2.889682 38.289815 1.203697 -3.126431 42.105985 0.000001 0.000003 0.000002 -53.806642 16.574245 23.971029 97.479879 -4.093486 -8.285917 -0.435284 -7.607413 -5.789382 0.779511 -0.000004 0.000004 -0.000003 -0.000001 0.000001 -61.376701 27.839448 -61.454818 77.154698 15.644827 -4.807013 -3.009016 -2.101595 34.714737 5.824608 -0.000039 0.000003 -0.000000 -0.000002 -0.000001 
